{
  "accessors": [
    {
      "bufferView": 2,
      "componentType": 5126,
      "count": 65534,
      "max": [
        29.048849105834961,
        40.550750732421875,
        60.238101959228516
      ],
      "min": [
        -38.073051452636719,
        -24.038948059082031,
        -40.828102111816406
      ],
      "type": "VEC3"
    },
    {
      "bufferView": 2,
      "byteOffset": 786408,
      "componentType": 5126,
      "count": 65534,
      "max": [
        0.9998505711555481,
        0.99955654144287109,
        0.9999421238899231
      ],
      "min": [
        -0.99998825788497925,
        -0.99973267316818237,
        -0.99993443489074707
      ],
      "type": "VEC3"
    },
    {
      "bufferView": 3,
      "componentType": 5126,
      "count": 65534,
      "max": [
        0.99305713176727295,
        0.99999797344207764,
        0.99079465866088867,
        1
      ],
      "min": [
        -0.99999898672103882,
        -0.99990904331207275,
        -0.98976379632949829,
        -1
      ],
      "type": "VEC4"
    },
    {
      "bufferView": 3,
      "byteOffset": 1048544,
      "componentType": 5126,
      "count": 65534,
      "max": [
        1,
        1,
        1,
        1
      ],
      "min": [
        1,
        1,
        1,
        1
      ],
      "type": "VEC4"
    },
    {
      "bufferView": 1,
      "componentType": 5126,
      "count": 65534,
      "max": [
        1.6174999475479126,
        0.98409998416900635
      ],
      "min": [
        -0.43399998545646667,
        0.033900000154972076
      ],
      "type": "VEC2"
    },
    {
      "bufferView": 0,
      "componentType": 5125,
      "count": 66312,
      "max": [
        65533
      ],
      "min": [
        0
      ],
      "type": "SCALAR"
    },
    {
      "bufferView": 2,
      "byteOffset": 1572816,
      "componentType": 5126,
      "count": 65533,
      "max": [
        44.211845397949219,
        40.658950805664062,
        60.364299774169922
      ],
      "min": [
        -44.285247802734375,
        -39.947048187255859,
        -60.364299774169922
      ],
      "type": "VEC3"
    },
    {
      "bufferView": 2,
      "byteOffset": 2359212,
      "componentType": 5126,
      "count": 65533,
      "max": [
        0.99993634223937988,
        0.99988162517547607,
        0.99999964237213135
      ],
      "min": [
        -0.99992424249649048,
        -0.99989676475524902,
        -0.99987488985061646
      ],
      "type": "VEC3"
    },
    {
      "bufferView": 3,
      "byteOffset": 2097088,
      "componentType": 5126,
      "count": 65533,
      "max": [
        0.99988818168640137,
        0.99999749660491943,
        0.92696225643157959,
        1
      ],
      "min": [
        -0.99999165534973145,
        -0.99997478723526001,
        -0.94006681442260742,
        -1
      ],
      "type": "VEC4"
    },
    {
      "bufferView": 3,
      "byteOffset": 3145616,
      "componentType": 5126,
      "count": 65533,
      "max": [
        1,
        1,
        1,
        1
      ],
      "min": [
        1,
        1,
        1,
        1
      ],
      "type": "VEC4"
    },
    {
      "bufferView": 1,
      "byteOffset": 524272,
      "componentType": 5126,
      "count": 65533,
      "max": [
        1.104699969291687,
        0.98309999704360962
      ],
      "min": [
        -0.75160002708435059,
        0.006399999838322401
      ],
      "type": "VEC2"
    },
    {
      "bufferView": 0,
      "byteOffset": 265248,
      "componentType": 5125,
      "count": 66948,
      "max": [
        65532
      ],
      "min": [
        0
      ],
      "type": "SCALAR"
    },
    {
      "bufferView": 2,
      "byteOffset": 3145608,
      "componentType": 5126,
      "count": 5628,
      "max": [
        41.18115234375,
        26.819149017333984,
        17.485599517822266
      ],
      "min": [
        -36.04095458984375,
        -39.108650207519531,
        -60.355998992919922
      ],
      "type": "VEC3"
    },
    {
      "bufferView": 2,
      "byteOffset": 3213144,
      "componentType": 5126,
      "count": 5628,
      "max": [
        0.99954402446746826,
        0.99181270599365234,
        0.99982517957687378
      ],
      "min": [
        -0.94386947154998779,
        -0.95957022905349731,
        -0.9946666955947876
      ],
      "type": "VEC3"
    },
    {
      "bufferView": 3,
      "byteOffset": 4194144,
      "componentType": 5126,
      "count": 5628,
      "max": [
        0.99968868494033813,
        0.99998378753662109,
        0.57870626449584961,
        1
      ],
      "min": [
        -0.99893003702163696,
        -0.9934813380241394,
        -0.67664098739624023,
        -1
      ],
      "type": "VEC4"
    },
    {
      "bufferView": 3,
      "byteOffset": 4284192,
      "componentType": 5126,
      "count": 5628,
      "max": [
        1,
        1,
        1,
        1
      ],
      "min": [
        1,
        1,
        1,
        1
      ],
      "type": "VEC4"
    },
    {
      "bufferView": 1,
      "byteOffset": 1048536,
      "componentType": 5126,
      "count": 5628,
      "max": [
        1.0780999660491943,
        0.85759997367858887
      ],
      "min": [
        -0.020300000905990601,
        0.074900001287460327
      ],
      "type": "VEC2"
    },
    {
      "bufferView": 0,
      "byteOffset": 533040,
      "componentType": 5125,
      "count": 5904,
      "max": [
        5627
      ],
      "min": [
        0
      ],
      "type": "SCALAR"
    },
    {
      "bufferView": 2,
      "byteOffset": 3280680,
      "componentType": 5126,
      "count": 65533,
      "max": [
        12.222148895263672,
        26.694849014282227,
        58.430103302001953
      ],
      "min": [
        -38.94525146484375,
        -19.54115104675293,
        -33.912601470947266
      ],
      "type": "VEC3"
    },
    {
      "bufferView": 2,
      "byteOffset": 4067076,
      "componentType": 5126,
      "count": 65533,
      "max": [
        0.99997568130493164,
        0.99992060661315918,
        0.99887192249298096
      ],
      "min": [
        -0.99973344802856445,
        -0.9999045729637146,
        -0.99982959032058716
      ],
      "type": "VEC3"
    },
    {
      "bufferView": 3,
      "byteOffset": 4374240,
      "componentType": 5126,
      "count": 65533,
      "max": [
        0.99901628494262695,
        0.99556481838226318,
        0.99139392375946045,
        1
      ],
      "min": [
        -0.93968755006790161,
        -0.99997246265411377,
        -0.99315834045410156,
        -1
      ],
      "type": "VEC4"
    },
    {
      "bufferView": 3,
      "byteOffset": 5422768,
      "componentType": 5126,
      "count": 65533,
      "max": [
        1,
        1,
        1,
        1
      ],
      "min": [
        1,
        1,
        1,
        1
      ],
      "type": "VEC4"
    },
    {
      "bufferView": 1,
      "byteOffset": 1093560,
      "componentType": 5126,
      "count": 65533,
      "max": [
        0.85610002279281616,
        0.96369999647140503
      ],
      "min": [
        0.32969999313354492,
        0.11999999731779099
      ],
      "type": "VEC2"
    },
    {
      "bufferView": 0,
      "byteOffset": 556656,
      "componentType": 5125,
      "count": 67806,
      "max": [
        65532
      ],
      "min": [
        0
      ],
      "type": "SCALAR"
    },
    {
      "bufferView": 2,
      "byteOffset": 4853472,
      "componentType": 5126,
      "count": 65534,
      "max": [
        21.18914794921875,
        26.911046981811523,
        58.973804473876953
      ],
      "min": [
        -38.014152526855469,
        -31.737751007080078,
        -41.15679931640625
      ],
      "type": "VEC3"
    },
    {
      "bufferView": 2,
      "byteOffset": 5639880,
      "componentType": 5126,
      "count": 65534,
      "max": [
        0.99960899353027344,
        0.99994230270385742,
        0.99996423721313477
      ],
      "min": [
        -0.99999719858169556,
        -0.99997258186340332,
        -0.99998629093170166
      ],
      "type": "VEC3"
    },
    {
      "bufferView": 3,
      "byteOffset": 6471296,
      "componentType": 5126,
      "count": 65534,
      "max": [
        0.99996697902679443,
        0.99997860193252563,
        0.9915621280670166,
        1
      ],
      "min": [
        -0.99996292591094971,
        -0.99949342012405396,
        -0.99191707372665405,
        -1
      ],
      "type": "VEC4"
    },
    {
      "bufferView": 3,
      "byteOffset": 7519840,
      "componentType": 5126,
      "count": 65534,
      "max": [
        1,
        1,
        1,
        1
      ],
      "min": [
        1,
        1,
        1,
        1
      ],
      "type": "VEC4"
    },
    {
      "bufferView": 1,
      "byteOffset": 1617824,
      "componentType": 5126,
      "count": 65534,
      "max": [
        1.5437999963760376,
        0.96439999341964722
      ],
      "min": [
        -0.45719999074935913,
        0.010300000198185444
      ],
      "type": "VEC2"
    },
    {
      "bufferView": 0,
      "byteOffset": 827880,
      "componentType": 5125,
      "count": 68142,
      "max": [
        65533
      ],
      "min": [
        0
      ],
      "type": "SCALAR"
    },
    {
      "bufferView": 2,
      "byteOffset": 6426288,
      "componentType": 5126,
      "count": 59877,
      "max": [
        28.948848724365234,
        29.21565055847168,
        19.155399322509766
      ],
      "min": [
        -40.535247802734375,
        -30.79734992980957,
        -41.137401580810547
      ],
      "type": "VEC3"
    },
    {
      "bufferView": 2,
      "byteOffset": 7144812,
      "componentType": 5126,
      "count": 59877,
      "max": [
        0.99996668100357056,
        0.99994510412216187,
        0.99959826469421387
      ],
      "min": [
        -0.99998873472213745,
        -0.99991029500961304,
        -0.99761700630187988
      ],
      "type": "VEC3"
    },
    {
      "bufferView": 3,
      "byteOffset": 8568384,
      "componentType": 5126,
      "count": 59877,
      "max": [
        0.99999237060546875,
        0.99992173910140991,
        0.9495118260383606,
        1
      ],
      "min": [
        -0.99933779239654541,
        -0.99999094009399414,
        -0.96892023086547852,
        -1
      ],
      "type": "VEC4"
    },
    {
      "bufferView": 3,
      "byteOffset": 9526416,
      "componentType": 5126,
      "count": 59877,
      "max": [
        1,
        1,
        1,
        1
      ],
      "min": [
        1,
        1,
        1,
        1
      ],
      "type": "VEC4"
    },
    {
      "bufferView": 1,
      "byteOffset": 2142096,
      "componentType": 5126,
      "count": 59877,
      "max": [
        1.9629000425338745,
        0.7621999979019165
      ],
      "min": [
        -0.026599999517202377,
        0.0076999999582767487
      ],
      "type": "VEC2"
    },
    {
      "bufferView": 0,
      "byteOffset": 1100448,
      "componentType": 5125,
      "count": 60651,
      "max": [
        59876
      ],
      "min": [
        0
      ],
      "type": "SCALAR"
    },
    {
      "bufferView": 2,
      "byteOffset": 7863336,
      "componentType": 5126,
      "count": 65534,
      "max": [
        43.276947021484375,
        37.304450988769531,
        26.226299285888672
      ],
      "min": [
        -44.206153869628906,
        -39.043548583984375,
        -56.496101379394531
      ],
      "type": "VEC3"
    },
    {
      "bufferView": 2,
      "byteOffset": 8649744,
      "componentType": 5126,
      "count": 65534,
      "max": [
        0.99997216463088989,
        0.99964690208435059,
        0.99993163347244263
      ],
      "min": [
        -0.99996805191040039,
        -0.99999541044235229,
        -0.9999459981918335
      ],
      "type": "VEC3"
    },
    {
      "bufferView": 3,
      "byteOffset": 10484448,
      "componentType": 5126,
      "count": 65534,
      "max": [
        0.99992269277572632,
        0.99999982118606567,
        0.99829232692718506,
        1
      ],
      "min": [
        -0.99991029500961304,
        -0.99382811784744263,
        -0.99789363145828247,
        -1
      ],
      "type": "VEC4"
    },
    {
      "bufferView": 3,
      "byteOffset": 11532992,
      "componentType": 5126,
      "count": 65534,
      "max": [
        1,
        1,
        1,
        1
      ],
      "min": [
        1,
        1,
        1,
        1
      ],
      "type": "VEC4"
    },
    {
      "bufferView": 1,
      "byteOffset": 2621112,
      "componentType": 5126,
      "count": 65534,
      "max": [
        1.1756000518798828,
        0.99639999866485596
      ],
      "min": [
        -0.32030001282691956,
        0.17260000109672546
      ],
      "type": "VEC2"
    },
    {
      "bufferView": 0,
      "byteOffset": 1343052,
      "componentType": 5125,
      "count": 67113,
      "max": [
        65533
      ],
      "min": [
        0
      ],
      "type": "SCALAR"
    },
    {
      "bufferView": 2,
      "byteOffset": 9436152,
      "componentType": 5126,
      "count": 65532,
      "max": [
        42.750045776367188,
        21.850751876831055,
        8.7129011154174805
      ],
      "min": [
        -26.439950942993164,
        -40.658950805664062,
        -57.729999542236328
      ],
      "type": "VEC3"
    },
    {
      "bufferView": 2,
      "byteOffset": 10222536,
      "componentType": 5126,
      "count": 65532,
      "max": [
        0.99987685680389404,
        0.99970775842666626,
        0.99998325109481812
      ],
      "min": [
        -0.99997830390930176,
        -0.99997478723526001,
        -0.9998440146446228
      ],
      "type": "VEC3"
    },
    {
      "bufferView": 3,
      "byteOffset": 12581536,
      "componentType": 5126,
      "count": 65532,
      "max": [
        0.9999995231628418,
        0.999592125415802,
        0.9981764554977417,
        1
      ],
      "min": [
        -0.99727177619934082,
        -0.99982064962387085,
        -0.99767988920211792,
        -1
      ],
      "type": "VEC4"
    },
    {
      "bufferView": 3,
      "byteOffset": 13630048,
      "componentType": 5126,
      "count": 65532,
      "max": [
        1,
        1,
        1,
        1
      ],
      "min": [
        1,
        1,
        1,
        1
      ],
      "type": "VEC4"
    },
    {
      "bufferView": 1,
      "byteOffset": 3145384,
      "componentType": 5126,
      "count": 65532,
      "max": [
        1.0326000452041626,
        0.5932999849319458
      ],
      "min": [
        -0.021299999207258224,
        0.022600000724196434
      ],
      "type": "VEC2"
    },
    {
      "bufferView": 0,
      "byteOffset": 1611504,
      "componentType": 5125,
      "count": 67509,
      "max": [
        65531
      ],
      "min": [
        0
      ],
      "type": "SCALAR"
    },
    {
      "bufferView": 2,
      "byteOffset": 11008920,
      "componentType": 5126,
      "count": 57779,
      "max": [
        44.285247802734375,
        25.925451278686523,
        11.337199211120605
      ],
      "min": [
        -25.496149063110352,
        -25.525548934936523,
        -56.041297912597656
      ],
      "type": "VEC3"
    },
    {
      "bufferView": 2,
      "byteOffset": 11702268,
      "componentType": 5126,
      "count": 57779,
      "max": [
        0.99998015165328979,
        0.99975770711898804,
        0.99997305870056152
      ],
      "min": [
        -0.99996620416641235,
        -0.99999213218688965,
        -0.99937647581100464
      ],
      "type": "VEC3"
    },
    {
      "bufferView": 3,
      "byteOffset": 14678560,
      "componentType": 5126,
      "count": 57779,
      "max": [
        0.9999086856842041,
        0.99999988079071045,
        0.99954128265380859,
        1
      ],
      "min": [
        -0.99979633092880249,
        -0.99996155500411987,
        -0.99902468919754028,
        -1
      ],
      "type": "VEC4"
    },
    {
      "bufferView": 3,
      "byteOffset": 15603024,
      "componentType": 5126,
      "count": 57779,
      "max": [
        1,
        1,
        1,
        1
      ],
      "min": [
        1,
        1,
        1,
        1
      ],
      "type": "VEC4"
    },
    {
      "bufferView": 1,
      "byteOffset": 3669640,
      "componentType": 5126,
      "count": 57779,
      "max": [
        1.0075000524520874,
        0.92930001020431519
      ],
      "min": [
        -0.075199998915195465,
        0.006399999838322401
      ],
      "type": "VEC2"
    },
    {
      "bufferView": 0,
      "byteOffset": 1881540,
      "componentType": 5125,
      "count": 61977,
      "max": [
        57778
      ],
      "min": [
        0
      ],
      "type": "SCALAR"
    }
  ],
  "asset": {
    "extras": {
      "author": "gultimate (https://sketchfab.com/gultimate)",
      "license": "CC-BY-4.0 (http://creativecommons.org/licenses/by/4.0/)",
      "source": "https://sketchfab.com/3d-models/heart-cc238dff82fa43a0ba7d63f1a7b600ae",
      "title": "Heart"
    },
    "generator": "Sketchfab-6.22.0",
    "version": "2.0"
  },
  "bufferViews": [
    {
      "buffer": 0,
      "byteLength": 2129448,
      "byteOffset": 0,
      "name": "floatBufferViews",
      "target": 34963
    },
    {
      "buffer": 0,
      "byteLength": 4131872,
      "byteOffset": 2129448,
      "byteStride": 8,
      "name": "floatBufferViews",
      "target": 34962
    },
    {
      "buffer": 0,
      "byteLength": 12395616,
      "byteOffset": 6261320,
      "byteStride": 12,
      "name": "floatBufferViews",
      "target": 34962
    },
    {
      "buffer": 0,
      "byteLength": 16527488,
      "byteOffset": 18656936,
      "byteStride": 16,
      "name": "floatBufferViews",
      "target": 34962
    }
  ],
  "buffers": [
    {
      "byteLength": 35184424,
      "uri": "scene.bin"
    }
  ],
  "materials": [
    {
      "doubleSided": true,
      "emissiveFactor": [
        0,
        0,
        0
      ],
      "name": "wire_224086086",
      "pbrMetallicRoughness": {
        "baseColorFactor": [
          0.87451000000000001,
          0.33725500000000003,
          0.33725500000000003,
          1
        ],
        "metallicFactor": 0,
        "roughnessFactor": 0.59999999999999998
      }
    }
  ],
  "meshes": [
    {
      "primitives": [
        {
          "attributes": {
            "COLOR_0": 3,
            "NORMAL": 1,
            "POSITION": 0,
            "TANGENT": 2,
            "TEXCOORD_0": 4
          },
          "indices": 5,
          "material": 0,
          "mode": 4
        }
      ]
    },
    {
      "primitives": [
        {
          "attributes": {
            "COLOR_0": 9,
            "NORMAL": 7,
            "POSITION": 6,
            "TANGENT": 8,
            "TEXCOORD_0": 10
          },
          "indices": 11,
          "material": 0,
          "mode": 4
        }
      ]
    },
    {
      "primitives": [
        {
          "attributes": {
            "COLOR_0": 15,
            "NORMAL": 13,
            "POSITION": 12,
            "TANGENT": 14,
            "TEXCOORD_0": 16
          },
          "indices": 17,
          "material": 0,
          "mode": 4
        }
      ]
    },
    {
      "primitives": [
        {
          "attributes": {
            "COLOR_0": 21,
            "NORMAL": 19,
            "POSITION": 18,
            "TANGENT": 20,
            "TEXCOORD_0": 22
          },
          "indices": 23,
          "material": 0,
          "mode": 4
        }
      ]
    },
    {
      "primitives": [
        {
          "attributes": {
            "COLOR_0": 27,
            "NORMAL": 25,
            "POSITION": 24,
            "TANGENT": 26,
            "TEXCOORD_0": 28
          },
          "indices": 29,
          "material": 0,
          "mode": 4
        }
      ]
    },
    {
      "primitives": [
        {
          "attributes": {
            "COLOR_0": 33,
            "NORMAL": 31,
            "POSITION": 30,
            "TANGENT": 32,
            "TEXCOORD_0": 34
          },
          "indices": 35,
          "material": 0,
          "mode": 4
        }
      ]
    },
    {
      "primitives": [
        {
          "attributes": {
            "COLOR_0": 39,
            "NORMAL": 37,
            "POSITION": 36,
            "TANGENT": 38,
            "TEXCOORD_0": 40
          },
          "indices": 41,
          "material": 0,
          "mode": 4
        }
      ]
    },
    {
      "primitives": [
        {
          "attributes": {
            "COLOR_0": 45,
            "NORMAL": 43,
            "POSITION": 42,
            "TANGENT": 44,
            "TEXCOORD_0": 46
          },
          "indices": 47,
          "material": 0,
          "mode": 4
        }
      ]
    },
    {
      "primitives": [
        {
          "attributes": {
            "COLOR_0": 51,
            "NORMAL": 49,
            "POSITION": 48,
            "TANGENT": 50,
            "TEXCOORD_0": 52
          },
          "indices": 53,
          "material": 0,
          "mode": 4
        }
      ]
    }
  ],
  "nodes": [
    {
      "children": [
        1
      ],
      "name": "RootNode (gltf orientation matrix)",
      "rotation": [
        -0.70710678118654746,
        -0,
        -0,
        0.70710678118654757
      ]
    },
    {
      "children": [
        2
      ],
      "name": "RootNode (model correction matrix)"
    },
    {
      "children": [
        3,
        7,
        11
      ],
      "matrix": [
        1,
        0,
        0,
        0,
        0,
        0,
        1,
        0,
        0,
        -1,
        0,
        0,
        8.7139492034912109,
        -13.11934757232666,
        -60.590099334716797,
        1
      ],
      "name": "heart"
    },
    {
      "children": [
        4,
        5,
        6
      ],
      "matrix": [
        1,
        0,
        0,
        0,
        0,
        -4.3711388286737843e-08,
        -0.999999999999998,
        0,
        0,
        0.999999999999998,
        -4.3711388286737843e-08,
        0,
        -8.7139492034912109,
        60.590098761251781,
        -13.119350220803993,
        1
      ],
      "name": "3DSMeshMatrix"
    },
    {
      "mesh": 0,
      "name": ""
    },
    {
      "mesh": 1,
      "name": ""
    },
    {
      "mesh": 2,
      "name": ""
    },
    {
      "children": [
        8,
        9,
        10
      ],
      "matrix": [
        1,
        0,
        0,
        0,
        0,
        -4.3711388286737843e-08,
        -0.999999999999998,
        0,
        0,
        0.999999999999998,
        -4.3711388286737843e-08,
        0,
        -8.7139492034912109,
        60.590098761251781,
        -13.119350220803993,
        1
      ],
      "name": "3DSMeshMatrix"
    },
    {
      "mesh": 3,
      "name": ""
    },
    {
      "mesh": 4,
      "name": ""
    },
    {
      "mesh": 5,
      "name": ""
    },
    {
      "children": [
        12,
        13,
        14
      ],
      "matrix": [
        1,
        0,
        0,
        0,
        0,
        -4.3711388286737843e-08,
        -0.999999999999998,
        0,
        0,
        0.999999999999998,
        -4.3711388286737843e-08,
        0,
        -8.7139492034912109,
        60.590098761251781,
        -13.119350220803993,
        1
      ],
      "name": "3DSMeshMatrix"
    },
    {
      "mesh": 6,
      "name": ""
    },
    {
      "mesh": 7,
      "name": ""
    },
    {
      "mesh": 8,
      "name": ""
    }
  ],
  "scene": 0,
  "scenes": [
    {
      "name": "OSG_Scene",
      "nodes": [
        0
      ]
    }
  ]
}

